<svg width="241" height="792" viewBox="0 0 241 792" fill="none" xmlns="http://www.w3.org/2000/svg">
<circle r="5.72565" transform="matrix(-1 0 0 1 44.3411 5.72565)" fill="#EAEEFA"/>
<circle r="5.72565" transform="matrix(-1 0 0 1 82.5182 5.72565)" fill="#EAEEFA"/>
<circle r="5.72565" transform="matrix(-1 0 0 1 44.3411 44.7257)" fill="#EAEEFA"/>
<circle r="5.72565" transform="matrix(-1 0 0 1 82.5182 44.7257)" fill="#EAEEFA"/>
<circle r="5.72565" transform="matrix(-1 0 0 1 120.692 44.7257)" fill="#EAEEFA"/>
<circle r="5.72565" transform="matrix(-1 0 0 1 44.3411 83.7257)" fill="#EAEEFA"/>
<circle r="5.72565" transform="matrix(-1 0 0 1 82.5182 83.7257)" fill="#EAEEFA"/>
<circle r="5.72565" transform="matrix(-1 0 0 1 120.692 83.7257)" fill="#EAEEFA"/>
<circle r="5.72565" transform="matrix(-1 0 0 1 82.5182 122.726)" fill="#EAEEFA"/>
<circle r="5.72565" transform="matrix(-1 0 0 1 82.5182 161.726)" fill="#EAEEFA"/>
<circle r="5.72565" transform="matrix(-1 0 0 1 120.692 161.726)" fill="#EAEEFA"/>
<circle r="5.72565" transform="matrix(-1 0 0 1 120.692 200.726)" fill="#EAEEFA"/>
<circle r="5.72565" transform="matrix(-1 0 0 1 44.3411 278.726)" fill="#EAEEFA"/>
<circle r="5.72565" transform="matrix(-1 0 0 1 158.856 278.726)" fill="#EAEEFA"/>
<circle r="5.72565" transform="matrix(-1 0 0 1 44.3411 317.726)" fill="#EAEEFA"/>
<circle r="5.72565" transform="matrix(-1 0 0 1 82.5182 317.726)" fill="#EAEEFA"/>
<circle r="5.72565" transform="matrix(-1 0 0 1 158.856 317.726)" fill="#EAEEFA"/>
<circle r="5.72565" transform="matrix(-1 0 0 1 197.03 317.726)" fill="#EAEEFA"/>
<circle r="5.72565" transform="matrix(-1 0 0 1 44.3411 356.726)" fill="#EAEEFA"/>
<circle r="5.72565" transform="matrix(-1 0 0 1 120.692 356.726)" fill="#EAEEFA"/>
<circle r="5.72565" transform="matrix(-1 0 0 1 158.856 395.726)" fill="#EAEEFA"/>
<circle r="5.72565" transform="matrix(-1 0 0 1 158.856 434.726)" fill="#EAEEFA"/>
<circle r="5.72565" transform="matrix(-1 0 0 1 44.3411 473.726)" fill="#EAEEFA"/>
<circle r="5.72565" transform="matrix(-1 0 0 1 82.5182 473.726)" fill="#EAEEFA"/>
<circle r="5.72565" transform="matrix(-1 0 0 1 120.692 473.726)" fill="#EAEEFA"/>
<circle r="5.72565" transform="matrix(-1 0 0 1 235.198 473.726)" fill="#EAEEFA"/>
<circle r="5.72565" transform="matrix(-1 0 0 1 44.3411 512.726)" fill="#EAEEFA"/>
<circle r="5.72565" transform="matrix(-1 0 0 1 82.5182 512.726)" fill="#EAEEFA"/>
<circle r="5.72565" transform="matrix(-1 0 0 1 44.3411 551.726)" fill="#EAEEFA"/>
<circle r="5.72565" transform="matrix(-1 0 0 1 82.5182 551.726)" fill="#EAEEFA"/>
<circle r="5.72565" transform="matrix(-1 0 0 1 120.692 551.726)" fill="#EAEEFA"/>
<circle r="5.72565" transform="matrix(-1 0 0 1 44.3411 629.726)" fill="#EAEEFA"/>
<circle r="5.72565" transform="matrix(-1 0 0 1 158.856 629.726)" fill="#EAEEFA"/>
<circle r="5.72565" transform="matrix(-1 0 0 1 44.3411 668.726)" fill="#EAEEFA"/>
<circle r="5.72565" transform="matrix(-1 0 0 1 82.5182 668.726)" fill="#EAEEFA"/>
<circle r="5.72565" transform="matrix(-1 0 0 1 197.03 668.726)" fill="#EAEEFA"/>
<circle r="5.72565" transform="matrix(-1 0 0 1 235.198 668.726)" fill="#EAEEFA"/>
<circle r="5.72565" transform="matrix(-1 0 0 1 44.3411 707.726)" fill="#EAEEFA"/>
<circle r="5.72565" transform="matrix(-1 0 0 1 82.5182 746.726)" fill="#EAEEFA"/>
<circle r="5.72565" transform="matrix(-1 0 0 1 120.692 746.726)" fill="#EAEEFA"/>
<circle r="5.72565" transform="matrix(-1 0 0 1 82.5182 785.726)" fill="#EAEEFA"/>
<circle r="5.72565" transform="matrix(-1 0 0 1 120.692 785.726)" fill="#EAEEFA"/>
<circle r="5.72565" transform="matrix(-1 0 0 1 158.856 785.726)" fill="#EAEEFA"/>
<circle r="5.72565" transform="matrix(-1 0 0 1 6.1773 5.72565)" fill="#FAFAFA"/>
<circle r="5.72565" transform="matrix(-1 0 0 1 120.691 5.72565)" fill="#FAFAFA"/>
<circle r="5.72565" transform="matrix(-1 0 0 1 158.856 5.72565)" fill="#FAFAFA"/>
<circle r="5.72565" transform="matrix(-1 0 0 1 197.029 5.72565)" fill="#FAFAFA"/>
<circle r="5.72565" transform="matrix(-1 0 0 1 235.198 5.72565)" fill="#FAFAFA"/>
<circle r="5.72565" transform="matrix(-1 0 0 1 6.1773 44.7257)" fill="#FAFAFA"/>
<circle r="5.72565" transform="matrix(-1 0 0 1 158.856 44.7257)" fill="#FAFAFA"/>
<circle r="5.72565" transform="matrix(-1 0 0 1 197.029 44.7257)" fill="#FAFAFA"/>
<circle r="5.72565" transform="matrix(-1 0 0 1 235.198 44.7257)" fill="#FAFAFA"/>
<circle r="5.72565" transform="matrix(-1 0 0 1 6.1773 83.7257)" fill="#FAFAFA"/>
<circle r="5.72565" transform="matrix(-1 0 0 1 158.856 83.7257)" fill="#FAFAFA"/>
<circle r="5.72565" transform="matrix(-1 0 0 1 197.029 83.7257)" fill="#FAFAFA"/>
<circle r="5.72565" transform="matrix(-1 0 0 1 235.198 83.7257)" fill="#FAFAFA"/>
<circle r="5.72565" transform="matrix(-1 0 0 1 6.1773 122.726)" fill="#FAFAFA"/>
<circle r="5.72565" transform="matrix(-1 0 0 1 44.3409 122.726)" fill="#FAFAFA"/>
<circle r="5.72565" transform="matrix(-1 0 0 1 120.691 122.726)" fill="#FAFAFA"/>
<circle r="5.72565" transform="matrix(-1 0 0 1 158.856 122.726)" fill="#FAFAFA"/>
<circle r="5.72565" transform="matrix(-1 0 0 1 197.029 122.726)" fill="#FAFAFA"/>
<circle r="5.72565" transform="matrix(-1 0 0 1 235.198 122.726)" fill="#FAFAFA"/>
<circle r="5.72565" transform="matrix(-1 0 0 1 6.1773 161.726)" fill="#FAFAFA"/>
<circle r="5.72565" transform="matrix(-1 0 0 1 44.3409 161.726)" fill="#FAFAFA"/>
<circle r="5.72565" transform="matrix(-1 0 0 1 158.856 161.726)" fill="#FAFAFA"/>
<circle r="5.72565" transform="matrix(-1 0 0 1 197.029 161.726)" fill="#FAFAFA"/>
<circle r="5.72565" transform="matrix(-1 0 0 1 235.198 161.726)" fill="#FAFAFA"/>
<circle r="5.72565" transform="matrix(-1 0 0 1 6.1773 200.726)" fill="#FAFAFA"/>
<circle r="5.72565" transform="matrix(-1 0 0 1 44.3409 200.726)" fill="#FAFAFA"/>
<circle r="5.72565" transform="matrix(-1 0 0 1 82.5179 200.726)" fill="#FAFAFA"/>
<circle r="5.72565" transform="matrix(-1 0 0 1 158.856 200.726)" fill="#FAFAFA"/>
<circle r="5.72565" transform="matrix(-1 0 0 1 197.029 200.726)" fill="#FAFAFA"/>
<circle r="5.72565" transform="matrix(-1 0 0 1 235.198 200.726)" fill="#FAFAFA"/>
<circle r="5.72565" transform="matrix(-1 0 0 1 6.1773 239.726)" fill="#FAFAFA"/>
<circle r="5.72565" transform="matrix(-1 0 0 1 44.3409 239.726)" fill="#FAFAFA"/>
<circle r="5.72565" transform="matrix(-1 0 0 1 82.5179 239.726)" fill="#FAFAFA"/>
<circle r="5.72565" transform="matrix(-1 0 0 1 120.691 239.726)" fill="#FAFAFA"/>
<circle r="5.72565" transform="matrix(-1 0 0 1 158.856 239.726)" fill="#FAFAFA"/>
<circle r="5.72565" transform="matrix(-1 0 0 1 197.029 239.726)" fill="#FAFAFA"/>
<circle r="5.72565" transform="matrix(-1 0 0 1 235.198 239.726)" fill="#FAFAFA"/>
<circle r="5.72565" transform="matrix(-1 0 0 1 6.1773 278.726)" fill="#FAFAFA"/>
<circle r="5.72565" transform="matrix(-1 0 0 1 82.5179 278.726)" fill="#FAFAFA"/>
<circle r="5.72565" transform="matrix(-1 0 0 1 120.691 278.726)" fill="#FAFAFA"/>
<circle r="5.72565" transform="matrix(-1 0 0 1 197.029 278.726)" fill="#FAFAFA"/>
<circle r="5.72565" transform="matrix(-1 0 0 1 235.198 278.726)" fill="#FAFAFA"/>
<circle r="5.72565" transform="matrix(-1 0 0 1 6.1773 317.726)" fill="#FAFAFA"/>
<circle r="5.72565" transform="matrix(-1 0 0 1 120.691 317.726)" fill="#FAFAFA"/>
<circle r="5.72565" transform="matrix(-1 0 0 1 235.198 317.726)" fill="#FAFAFA"/>
<circle r="5.72565" transform="matrix(-1 0 0 1 5.72564 356.726)" fill="#FAFAFA"/>
<circle r="5.72565" transform="matrix(-1 0 0 1 82.5179 356.726)" fill="#FAFAFA"/>
<circle r="5.72565" transform="matrix(-1 0 0 1 158.856 356.726)" fill="#FAFAFA"/>
<circle r="5.72565" transform="matrix(-1 0 0 1 197.029 356.726)" fill="#FAFAFA"/>
<circle r="5.72565" transform="matrix(-1 0 0 1 235.198 356.726)" fill="#FAFAFA"/>
<circle r="5.72565" transform="matrix(-1 0 0 1 6.1773 395.726)" fill="#FAFAFA"/>
<circle r="5.72565" transform="matrix(-1 0 0 1 44.3409 395.726)" fill="#FAFAFA"/>
<circle r="5.72565" transform="matrix(-1 0 0 1 82.5179 395.726)" fill="#FAFAFA"/>
<circle r="5.72565" transform="matrix(-1 0 0 1 120.691 395.726)" fill="#FAFAFA"/>
<circle r="5.72565" transform="matrix(-1 0 0 1 197.029 395.726)" fill="#FAFAFA"/>
<circle r="5.72565" transform="matrix(-1 0 0 1 235.198 395.726)" fill="#FAFAFA"/>
<circle r="5.72565" transform="matrix(-1 0 0 1 6.1773 434.726)" fill="#FAFAFA"/>
<circle r="5.72565" transform="matrix(-1 0 0 1 44.3409 434.726)" fill="#FAFAFA"/>
<circle r="5.72565" transform="matrix(-1 0 0 1 82.5179 434.726)" fill="#FAFAFA"/>
<circle r="5.72565" transform="matrix(-1 0 0 1 120.691 434.726)" fill="#FAFAFA"/>
<circle r="5.72565" transform="matrix(-1 0 0 1 197.029 434.726)" fill="#FAFAFA"/>
<circle r="5.72565" transform="matrix(-1 0 0 1 235.198 434.726)" fill="#FAFAFA"/>
<circle r="5.72565" transform="matrix(-1 0 0 1 6.1773 473.726)" fill="#FAFAFA"/>
<circle r="5.72565" transform="matrix(-1 0 0 1 158.856 473.726)" fill="#FAFAFA"/>
<circle r="5.72565" transform="matrix(-1 0 0 1 197.029 473.726)" fill="#FAFAFA"/>
<circle r="5.72565" transform="matrix(-1 0 0 1 6.1773 512.726)" fill="#FAFAFA"/>
<circle r="5.72565" transform="matrix(-1 0 0 1 120.691 512.726)" fill="#FAFAFA"/>
<circle r="5.72565" transform="matrix(-1 0 0 1 158.856 512.726)" fill="#FAFAFA"/>
<circle r="5.72565" transform="matrix(-1 0 0 1 197.029 512.726)" fill="#FAFAFA"/>
<circle r="5.72565" transform="matrix(-1 0 0 1 235.198 512.726)" fill="#FAFAFA"/>
<circle r="5.72565" transform="matrix(-1 0 0 1 6.1773 551.726)" fill="#FAFAFA"/>
<circle r="5.72565" transform="matrix(-1 0 0 1 158.856 551.726)" fill="#FAFAFA"/>
<circle r="5.72565" transform="matrix(-1 0 0 1 197.029 551.726)" fill="#FAFAFA"/>
<circle r="5.72565" transform="matrix(-1 0 0 1 235.198 551.726)" fill="#FAFAFA"/>
<circle r="5.72565" transform="matrix(-1 0 0 1 6.1773 590.726)" fill="#FAFAFA"/>
<circle r="5.72565" transform="matrix(-1 0 0 1 44.3409 590.726)" fill="#FAFAFA"/>
<circle r="5.72565" transform="matrix(-1 0 0 1 82.5179 590.726)" fill="#FAFAFA"/>
<circle r="5.72565" transform="matrix(-1 0 0 1 120.691 590.726)" fill="#FAFAFA"/>
<circle r="5.72565" transform="matrix(-1 0 0 1 158.856 590.726)" fill="#FAFAFA"/>
<circle r="5.72565" transform="matrix(-1 0 0 1 197.029 590.726)" fill="#FAFAFA"/>
<circle r="5.72565" transform="matrix(-1 0 0 1 235.198 590.726)" fill="#FAFAFA"/>
<circle r="5.72565" transform="matrix(-1 0 0 1 6.1773 629.726)" fill="#FAFAFA"/>
<circle r="5.72565" transform="matrix(-1 0 0 1 82.5179 629.726)" fill="#FAFAFA"/>
<circle r="5.72565" transform="matrix(-1 0 0 1 120.691 629.726)" fill="#FAFAFA"/>
<circle r="5.72565" transform="matrix(-1 0 0 1 197.029 629.726)" fill="#FAFAFA"/>
<circle r="5.72565" transform="matrix(-1 0 0 1 235.198 629.726)" fill="#FAFAFA"/>
<circle r="5.72565" transform="matrix(-1 0 0 1 6.1773 668.726)" fill="#FAFAFA"/>
<circle r="5.72565" transform="matrix(-1 0 0 1 120.691 668.726)" fill="#FAFAFA"/>
<circle r="5.72565" transform="matrix(-1 0 0 1 158.856 668.726)" fill="#FAFAFA"/>
<circle r="5.72565" transform="matrix(-1 0 0 1 6.1773 707.726)" fill="#FAFAFA"/>
<circle r="5.72565" transform="matrix(-1 0 0 1 82.5179 707.726)" fill="#FAFAFA"/>
<circle r="5.72565" transform="matrix(-1 0 0 1 120.691 707.726)" fill="#FAFAFA"/>
<circle r="5.72565" transform="matrix(-1 0 0 1 158.856 707.726)" fill="#FAFAFA"/>
<circle r="5.72565" transform="matrix(-1 0 0 1 197.029 707.726)" fill="#FAFAFA"/>
<circle r="5.72565" transform="matrix(-1 0 0 1 235.198 707.726)" fill="#FAFAFA"/>
<circle r="5.72565" transform="matrix(-1 0 0 1 6.1773 746.726)" fill="#FAFAFA"/>
<circle r="5.72565" transform="matrix(-1 0 0 1 44.3409 746.726)" fill="#FAFAFA"/>
<circle r="5.72565" transform="matrix(-1 0 0 1 158.856 746.726)" fill="#FAFAFA"/>
<circle r="5.72565" transform="matrix(-1 0 0 1 197.029 746.726)" fill="#FAFAFA"/>
<circle r="5.72565" transform="matrix(-1 0 0 1 235.198 746.726)" fill="#FAFAFA"/>
<circle r="5.72565" transform="matrix(-1 0 0 1 6.1773 785.726)" fill="#FAFAFA"/>
<circle r="5.72565" transform="matrix(-1 0 0 1 44.3409 785.726)" fill="#FAFAFA"/>
<circle r="5.72565" transform="matrix(-1 0 0 1 197.029 785.726)" fill="#FAFAFA"/>
<circle r="5.72565" transform="matrix(-1 0 0 1 235.198 785.726)" fill="#FAFAFA"/>
</svg>
