<svg width="241" height="558" viewBox="0 0 241 558" fill="none" xmlns="http://www.w3.org/2000/svg">
<circle r="5.72565" transform="matrix(-1 0 0 1 44.3411 6.17695)" fill="#EAEEFA"/>
<circle r="5.72565" transform="matrix(-1 0 0 1 82.5182 6.17695)" fill="#EAEEFA"/>
<circle r="5.72565" transform="matrix(-1 0 0 1 44.3411 45.1769)" fill="#EAEEFA"/>
<circle r="5.72565" transform="matrix(-1 0 0 1 82.5182 45.1769)" fill="#EAEEFA"/>
<circle r="5.72565" transform="matrix(-1 0 0 1 120.692 45.1769)" fill="#EAEEFA"/>
<circle r="5.72565" transform="matrix(-1 0 0 1 44.3411 84.1769)" fill="#EAEEFA"/>
<circle r="5.72565" transform="matrix(-1 0 0 1 82.5182 84.1769)" fill="#EAEEFA"/>
<circle r="5.72565" transform="matrix(-1 0 0 1 120.692 84.1769)" fill="#EAEEFA"/>
<circle r="5.72565" transform="matrix(-1 0 0 1 82.5182 123.177)" fill="#EAEEFA"/>
<circle r="5.72565" transform="matrix(-1 0 0 1 82.5182 162.177)" fill="#EAEEFA"/>
<circle r="5.72565" transform="matrix(-1 0 0 1 120.692 162.177)" fill="#EAEEFA"/>
<circle r="5.72565" transform="matrix(-1 0 0 1 120.692 201.177)" fill="#EAEEFA"/>
<circle r="5.72565" transform="matrix(-1 0 0 1 44.3411 279.177)" fill="#EAEEFA"/>
<circle r="5.72565" transform="matrix(-1 0 0 1 158.856 279.177)" fill="#EAEEFA"/>
<circle r="5.72565" transform="matrix(-1 0 0 1 44.3411 318.177)" fill="#EAEEFA"/>
<circle r="5.72565" transform="matrix(-1 0 0 1 82.5182 318.177)" fill="#EAEEFA"/>
<circle r="5.72565" transform="matrix(-1 0 0 1 158.856 318.177)" fill="#EAEEFA"/>
<circle r="5.72565" transform="matrix(-1 0 0 1 197.03 318.177)" fill="#EAEEFA"/>
<circle r="5.72565" transform="matrix(-1 0 0 1 44.3411 357.177)" fill="#EAEEFA"/>
<circle r="5.72565" transform="matrix(-1 0 0 1 120.692 357.177)" fill="#EAEEFA"/>
<circle r="5.72565" transform="matrix(-1 0 0 1 158.856 396.177)" fill="#EAEEFA"/>
<circle r="5.72565" transform="matrix(-1 0 0 1 158.856 435.177)" fill="#EAEEFA"/>
<circle r="5.72565" transform="matrix(-1 0 0 1 44.3411 474.177)" fill="#EAEEFA"/>
<circle r="5.72565" transform="matrix(-1 0 0 1 82.5182 474.177)" fill="#EAEEFA"/>
<circle r="5.72565" transform="matrix(-1 0 0 1 120.692 474.177)" fill="#EAEEFA"/>
<circle r="5.72565" transform="matrix(-1 0 0 1 235.198 474.177)" fill="#EAEEFA"/>
<circle r="5.72565" transform="matrix(-1 0 0 1 44.3411 513.177)" fill="#EAEEFA"/>
<circle r="5.72565" transform="matrix(-1 0 0 1 82.5182 513.177)" fill="#EAEEFA"/>
<circle r="5.72565" transform="matrix(-1 0 0 1 44.3411 552.177)" fill="#EAEEFA"/>
<circle r="5.72565" transform="matrix(-1 0 0 1 82.5182 552.177)" fill="#EAEEFA"/>
<circle r="5.72565" transform="matrix(-1 0 0 1 120.692 552.177)" fill="#EAEEFA"/>
<circle r="5.72565" transform="matrix(-1 0 0 1 6.1773 6.17695)" fill="#FAFAFA"/>
<circle r="5.72565" transform="matrix(-1 0 0 1 120.691 6.17695)" fill="#FAFAFA"/>
<circle r="5.72565" transform="matrix(-1 0 0 1 158.856 6.17695)" fill="#FAFAFA"/>
<circle r="5.72565" transform="matrix(-1 0 0 1 197.029 6.17695)" fill="#FAFAFA"/>
<circle r="5.72565" transform="matrix(-1 0 0 1 235.198 6.17695)" fill="#FAFAFA"/>
<circle r="5.72565" transform="matrix(-1 0 0 1 6.1773 45.1769)" fill="#FAFAFA"/>
<circle r="5.72565" transform="matrix(-1 0 0 1 158.856 45.1769)" fill="#FAFAFA"/>
<circle r="5.72565" transform="matrix(-1 0 0 1 197.029 45.1769)" fill="#FAFAFA"/>
<circle r="5.72565" transform="matrix(-1 0 0 1 235.198 45.1769)" fill="#FAFAFA"/>
<circle r="5.72565" transform="matrix(-1 0 0 1 6.1773 84.1769)" fill="#FAFAFA"/>
<circle r="5.72565" transform="matrix(-1 0 0 1 158.856 84.1769)" fill="#FAFAFA"/>
<circle r="5.72565" transform="matrix(-1 0 0 1 197.029 84.1769)" fill="#FAFAFA"/>
<circle r="5.72565" transform="matrix(-1 0 0 1 235.198 84.1769)" fill="#FAFAFA"/>
<circle r="5.72565" transform="matrix(-1 0 0 1 6.1773 123.177)" fill="#FAFAFA"/>
<circle r="5.72565" transform="matrix(-1 0 0 1 44.3409 123.177)" fill="#FAFAFA"/>
<circle r="5.72565" transform="matrix(-1 0 0 1 120.691 123.177)" fill="#FAFAFA"/>
<circle r="5.72565" transform="matrix(-1 0 0 1 158.856 123.177)" fill="#FAFAFA"/>
<circle r="5.72565" transform="matrix(-1 0 0 1 197.029 123.177)" fill="#FAFAFA"/>
<circle r="5.72565" transform="matrix(-1 0 0 1 235.198 123.177)" fill="#FAFAFA"/>
<circle r="5.72565" transform="matrix(-1 0 0 1 6.1773 162.177)" fill="#FAFAFA"/>
<circle r="5.72565" transform="matrix(-1 0 0 1 44.3409 162.177)" fill="#FAFAFA"/>
<circle r="5.72565" transform="matrix(-1 0 0 1 158.856 162.177)" fill="#FAFAFA"/>
<circle r="5.72565" transform="matrix(-1 0 0 1 197.029 162.177)" fill="#FAFAFA"/>
<circle r="5.72565" transform="matrix(-1 0 0 1 235.198 162.177)" fill="#FAFAFA"/>
<circle r="5.72565" transform="matrix(-1 0 0 1 6.1773 201.177)" fill="#FAFAFA"/>
<circle r="5.72565" transform="matrix(-1 0 0 1 44.3409 201.177)" fill="#FAFAFA"/>
<circle r="5.72565" transform="matrix(-1 0 0 1 82.5179 201.177)" fill="#FAFAFA"/>
<circle r="5.72565" transform="matrix(-1 0 0 1 158.856 201.177)" fill="#FAFAFA"/>
<circle r="5.72565" transform="matrix(-1 0 0 1 197.029 201.177)" fill="#FAFAFA"/>
<circle r="5.72565" transform="matrix(-1 0 0 1 235.198 201.177)" fill="#FAFAFA"/>
<circle r="5.72565" transform="matrix(-1 0 0 1 6.1773 240.177)" fill="#FAFAFA"/>
<circle r="5.72565" transform="matrix(-1 0 0 1 44.3409 240.177)" fill="#FAFAFA"/>
<circle r="5.72565" transform="matrix(-1 0 0 1 82.5179 240.177)" fill="#FAFAFA"/>
<circle r="5.72565" transform="matrix(-1 0 0 1 120.691 240.177)" fill="#FAFAFA"/>
<circle r="5.72565" transform="matrix(-1 0 0 1 158.856 240.177)" fill="#FAFAFA"/>
<circle r="5.72565" transform="matrix(-1 0 0 1 197.029 240.177)" fill="#FAFAFA"/>
<circle r="5.72565" transform="matrix(-1 0 0 1 235.198 240.177)" fill="#FAFAFA"/>
<circle r="5.72565" transform="matrix(-1 0 0 1 6.1773 279.177)" fill="#FAFAFA"/>
<circle r="5.72565" transform="matrix(-1 0 0 1 82.5179 279.177)" fill="#FAFAFA"/>
<circle r="5.72565" transform="matrix(-1 0 0 1 120.691 279.177)" fill="#FAFAFA"/>
<circle r="5.72565" transform="matrix(-1 0 0 1 197.029 279.177)" fill="#FAFAFA"/>
<circle r="5.72565" transform="matrix(-1 0 0 1 235.198 279.177)" fill="#FAFAFA"/>
<circle r="5.72565" transform="matrix(-1 0 0 1 6.1773 318.177)" fill="#FAFAFA"/>
<circle r="5.72565" transform="matrix(-1 0 0 1 120.691 318.177)" fill="#FAFAFA"/>
<circle r="5.72565" transform="matrix(-1 0 0 1 235.198 318.177)" fill="#FAFAFA"/>
<circle r="5.72565" transform="matrix(-1 0 0 1 5.72564 357.177)" fill="#FAFAFA"/>
<circle r="5.72565" transform="matrix(-1 0 0 1 82.5179 357.177)" fill="#FAFAFA"/>
<circle r="5.72565" transform="matrix(-1 0 0 1 158.856 357.177)" fill="#FAFAFA"/>
<circle r="5.72565" transform="matrix(-1 0 0 1 197.029 357.177)" fill="#FAFAFA"/>
<circle r="5.72565" transform="matrix(-1 0 0 1 235.198 357.177)" fill="#FAFAFA"/>
<circle r="5.72565" transform="matrix(-1 0 0 1 6.1773 396.177)" fill="#FAFAFA"/>
<circle r="5.72565" transform="matrix(-1 0 0 1 44.3409 396.177)" fill="#FAFAFA"/>
<circle r="5.72565" transform="matrix(-1 0 0 1 82.5179 396.177)" fill="#FAFAFA"/>
<circle r="5.72565" transform="matrix(-1 0 0 1 120.691 396.177)" fill="#FAFAFA"/>
<circle r="5.72565" transform="matrix(-1 0 0 1 197.029 396.177)" fill="#FAFAFA"/>
<circle r="5.72565" transform="matrix(-1 0 0 1 235.198 396.177)" fill="#FAFAFA"/>
<circle r="5.72565" transform="matrix(-1 0 0 1 6.1773 435.177)" fill="#FAFAFA"/>
<circle r="5.72565" transform="matrix(-1 0 0 1 44.3409 435.177)" fill="#FAFAFA"/>
<circle r="5.72565" transform="matrix(-1 0 0 1 82.5179 435.177)" fill="#FAFAFA"/>
<circle r="5.72565" transform="matrix(-1 0 0 1 120.691 435.177)" fill="#FAFAFA"/>
<circle r="5.72565" transform="matrix(-1 0 0 1 197.029 435.177)" fill="#FAFAFA"/>
<circle r="5.72565" transform="matrix(-1 0 0 1 235.198 435.177)" fill="#FAFAFA"/>
<circle r="5.72565" transform="matrix(-1 0 0 1 6.1773 474.177)" fill="#FAFAFA"/>
<circle r="5.72565" transform="matrix(-1 0 0 1 158.856 474.177)" fill="#FAFAFA"/>
<circle r="5.72565" transform="matrix(-1 0 0 1 197.029 474.177)" fill="#FAFAFA"/>
<circle r="5.72565" transform="matrix(-1 0 0 1 6.1773 513.177)" fill="#FAFAFA"/>
<circle r="5.72565" transform="matrix(-1 0 0 1 120.691 513.177)" fill="#FAFAFA"/>
<circle r="5.72565" transform="matrix(-1 0 0 1 158.856 513.177)" fill="#FAFAFA"/>
<circle r="5.72565" transform="matrix(-1 0 0 1 197.029 513.177)" fill="#FAFAFA"/>
<circle r="5.72565" transform="matrix(-1 0 0 1 235.198 513.177)" fill="#FAFAFA"/>
<circle r="5.72565" transform="matrix(-1 0 0 1 6.1773 552.177)" fill="#FAFAFA"/>
<circle r="5.72565" transform="matrix(-1 0 0 1 158.856 552.177)" fill="#FAFAFA"/>
<circle r="5.72565" transform="matrix(-1 0 0 1 197.029 552.177)" fill="#FAFAFA"/>
<circle r="5.72565" transform="matrix(-1 0 0 1 235.198 552.177)" fill="#FAFAFA"/>
</svg>
