<svg width="241" height="909" viewBox="0 0 241 909" fill="none" xmlns="http://www.w3.org/2000/svg">
<g opacity="0.5">
<circle cx="197.11" cy="5.72565" r="5.72565" fill="#BFCAE8"/>
<circle cx="158.933" cy="5.72565" r="5.72565" fill="#BFCAE8"/>
<circle cx="197.11" cy="44.7257" r="5.72565" fill="#BFCAE8"/>
<circle cx="158.933" cy="44.7257" r="5.72565" fill="#BFCAE8"/>
<circle cx="120.759" cy="44.7257" r="5.72565" fill="#BFCAE8"/>
<circle cx="197.11" cy="83.7257" r="5.72565" fill="#BFCAE8"/>
<circle cx="158.933" cy="83.7257" r="5.72565" fill="#BFCAE8"/>
<circle cx="120.759" cy="83.7257" r="5.72565" fill="#BFCAE8"/>
<circle cx="158.933" cy="122.726" r="5.72565" fill="#BFCAE8"/>
<circle cx="158.933" cy="161.726" r="5.72565" fill="#BFCAE8"/>
<circle cx="120.759" cy="161.726" r="5.72565" fill="#BFCAE8"/>
<circle cx="120.759" cy="200.726" r="5.72565" fill="#BFCAE8"/>
<circle cx="197.11" cy="278.726" r="5.72565" fill="#BFCAE8"/>
<circle cx="82.5953" cy="278.726" r="5.72565" fill="#BFCAE8"/>
<circle cx="197.11" cy="317.726" r="5.72565" fill="#BFCAE8"/>
<circle cx="158.933" cy="317.726" r="5.72565" fill="#BFCAE8"/>
<circle cx="82.5953" cy="317.726" r="5.72565" fill="#BFCAE8"/>
<circle cx="44.4217" cy="317.726" r="5.72565" fill="#BFCAE8"/>
<circle cx="197.11" cy="356.726" r="5.72565" fill="#BFCAE8"/>
<circle cx="120.759" cy="356.726" r="5.72565" fill="#BFCAE8"/>
<circle cx="82.5953" cy="395.726" r="5.72565" fill="#BFCAE8"/>
<circle cx="82.5953" cy="434.726" r="5.72565" fill="#BFCAE8"/>
<circle cx="197.11" cy="473.726" r="5.72565" fill="#BFCAE8"/>
<circle cx="158.933" cy="473.726" r="5.72565" fill="#BFCAE8"/>
<circle cx="120.759" cy="473.726" r="5.72565" fill="#BFCAE8"/>
<circle cx="6.253" cy="473.726" r="5.72565" fill="#BFCAE8"/>
<circle cx="197.11" cy="512.726" r="5.72565" fill="#BFCAE8"/>
<circle cx="158.933" cy="512.726" r="5.72565" fill="#BFCAE8"/>
<circle cx="197.11" cy="551.726" r="5.72565" fill="#BFCAE8"/>
<circle cx="158.933" cy="551.726" r="5.72565" fill="#BFCAE8"/>
<circle cx="120.759" cy="551.726" r="5.72565" fill="#BFCAE8"/>
<circle cx="197.11" cy="629.726" r="5.72565" fill="#BFCAE8"/>
<circle cx="82.5953" cy="629.726" r="5.72565" fill="#BFCAE8"/>
<circle cx="197.11" cy="668.726" r="5.72565" fill="#BFCAE8"/>
<circle cx="158.933" cy="668.726" r="5.72565" fill="#BFCAE8"/>
<circle cx="44.4217" cy="668.726" r="5.72565" fill="#BFCAE8"/>
<circle cx="6.253" cy="668.726" r="5.72565" fill="#BFCAE8"/>
<circle cx="197.11" cy="707.726" r="5.72565" fill="#BFCAE8"/>
<circle cx="158.933" cy="746.726" r="5.72565" fill="#BFCAE8"/>
<circle cx="120.759" cy="746.726" r="5.72565" fill="#BFCAE8"/>
<circle cx="158.933" cy="785.726" r="5.72565" fill="#BFCAE8"/>
<circle cx="120.759" cy="785.726" r="5.72565" fill="#BFCAE8"/>
<circle cx="82.5953" cy="785.726" r="5.72565" fill="#BFCAE8"/>
<circle cx="158.933" cy="824.726" r="5.72565" fill="#BFCAE8"/>
<circle cx="120.759" cy="824.726" r="5.72565" fill="#BFCAE8"/>
<circle cx="197.11" cy="863.726" r="5.72565" fill="#BFCAE8"/>
<circle cx="158.933" cy="863.726" r="5.72565" fill="#BFCAE8"/>
<circle cx="82.5953" cy="863.726" r="5.72565" fill="#BFCAE8"/>
<circle cx="197.725" cy="902.726" r="5.72565" fill="#BFCAE8"/>
<circle cx="159.725" cy="902.726" r="5.72565" fill="#BFCAE8"/>
</g>
<circle cx="235.274" cy="5.72565" r="5.72565" fill="#FAFAFA"/>
<circle cx="120.76" cy="5.72565" r="5.72565" fill="#FAFAFA"/>
<circle cx="82.5958" cy="5.72565" r="5.72565" fill="#FAFAFA"/>
<circle cx="44.4219" cy="5.72565" r="5.72565" fill="#FAFAFA"/>
<circle cx="6.25349" cy="5.72565" r="5.72565" fill="#FAFAFA"/>
<circle cx="235.274" cy="44.7257" r="5.72565" fill="#FAFAFA"/>
<circle cx="82.5958" cy="44.7257" r="5.72565" fill="#FAFAFA"/>
<circle cx="44.4219" cy="44.7257" r="5.72565" fill="#FAFAFA"/>
<circle cx="6.25349" cy="44.7257" r="5.72565" fill="#FAFAFA"/>
<circle cx="235.274" cy="83.7257" r="5.72565" fill="#FAFAFA"/>
<circle cx="82.5958" cy="83.7257" r="5.72565" fill="#FAFAFA"/>
<circle cx="44.4219" cy="83.7257" r="5.72565" fill="#FAFAFA"/>
<circle cx="6.25349" cy="83.7257" r="5.72565" fill="#FAFAFA"/>
<circle cx="235.274" cy="122.726" r="5.72565" fill="#FAFAFA"/>
<circle cx="197.11" cy="122.726" r="5.72565" fill="#FAFAFA"/>
<circle cx="120.76" cy="122.726" r="5.72565" fill="#FAFAFA"/>
<circle cx="82.5958" cy="122.726" r="5.72565" fill="#FAFAFA"/>
<circle cx="44.4219" cy="122.726" r="5.72565" fill="#FAFAFA"/>
<circle cx="6.25349" cy="122.726" r="5.72565" fill="#FAFAFA"/>
<circle cx="235.274" cy="161.726" r="5.72565" fill="#FAFAFA"/>
<circle cx="197.11" cy="161.726" r="5.72565" fill="#FAFAFA"/>
<circle cx="82.5958" cy="161.726" r="5.72565" fill="#FAFAFA"/>
<circle cx="44.4219" cy="161.726" r="5.72565" fill="#FAFAFA"/>
<circle cx="6.25349" cy="161.726" r="5.72565" fill="#FAFAFA"/>
<circle cx="235.274" cy="200.726" r="5.72565" fill="#FAFAFA"/>
<circle cx="197.11" cy="200.726" r="5.72565" fill="#FAFAFA"/>
<circle cx="158.933" cy="200.726" r="5.72565" fill="#FAFAFA"/>
<circle cx="82.5958" cy="200.726" r="5.72565" fill="#FAFAFA"/>
<circle cx="44.4219" cy="200.726" r="5.72565" fill="#FAFAFA"/>
<circle cx="6.25349" cy="200.726" r="5.72565" fill="#FAFAFA"/>
<circle cx="235.274" cy="239.726" r="5.72565" fill="#FAFAFA"/>
<circle cx="197.11" cy="239.726" r="5.72565" fill="#FAFAFA"/>
<circle cx="158.933" cy="239.726" r="5.72565" fill="#FAFAFA"/>
<circle cx="120.76" cy="239.726" r="5.72565" fill="#FAFAFA"/>
<circle cx="82.5958" cy="239.726" r="5.72565" fill="#FAFAFA"/>
<circle cx="44.4219" cy="239.726" r="5.72565" fill="#FAFAFA"/>
<circle cx="6.25349" cy="239.726" r="5.72565" fill="#FAFAFA"/>
<circle cx="235.274" cy="278.726" r="5.72565" fill="#FAFAFA"/>
<circle cx="158.933" cy="278.726" r="5.72565" fill="#FAFAFA"/>
<circle cx="120.76" cy="278.726" r="5.72565" fill="#FAFAFA"/>
<circle cx="44.4219" cy="278.726" r="5.72565" fill="#FAFAFA"/>
<circle cx="6.25349" cy="278.726" r="5.72565" fill="#FAFAFA"/>
<circle cx="235.274" cy="317.726" r="5.72565" fill="#FAFAFA"/>
<circle cx="120.76" cy="317.726" r="5.72565" fill="#FAFAFA"/>
<circle cx="6.25349" cy="317.726" r="5.72565" fill="#FAFAFA"/>
<circle cx="235.726" cy="356.726" r="5.72565" fill="#FAFAFA"/>
<circle cx="158.933" cy="356.726" r="5.72565" fill="#FAFAFA"/>
<circle cx="82.5958" cy="356.726" r="5.72565" fill="#FAFAFA"/>
<circle cx="44.4219" cy="356.726" r="5.72565" fill="#FAFAFA"/>
<circle cx="6.25349" cy="356.726" r="5.72565" fill="#FAFAFA"/>
<circle cx="235.274" cy="395.726" r="5.72565" fill="#FAFAFA"/>
<circle cx="197.11" cy="395.726" r="5.72565" fill="#FAFAFA"/>
<circle cx="158.933" cy="395.726" r="5.72565" fill="#FAFAFA"/>
<circle cx="120.76" cy="395.726" r="5.72565" fill="#FAFAFA"/>
<circle cx="44.4219" cy="395.726" r="5.72565" fill="#FAFAFA"/>
<circle cx="6.25349" cy="395.726" r="5.72565" fill="#FAFAFA"/>
<circle cx="235.274" cy="434.726" r="5.72565" fill="#FAFAFA"/>
<circle cx="197.11" cy="434.726" r="5.72565" fill="#FAFAFA"/>
<circle cx="158.933" cy="434.726" r="5.72565" fill="#FAFAFA"/>
<circle cx="120.76" cy="434.726" r="5.72565" fill="#FAFAFA"/>
<circle cx="44.4219" cy="434.726" r="5.72565" fill="#FAFAFA"/>
<circle cx="6.25349" cy="434.726" r="5.72565" fill="#FAFAFA"/>
<circle cx="235.274" cy="473.726" r="5.72565" fill="#FAFAFA"/>
<circle cx="82.5958" cy="473.726" r="5.72565" fill="#FAFAFA"/>
<circle cx="44.4219" cy="473.726" r="5.72565" fill="#FAFAFA"/>
<circle cx="235.274" cy="512.726" r="5.72565" fill="#FAFAFA"/>
<circle cx="120.76" cy="512.726" r="5.72565" fill="#FAFAFA"/>
<circle cx="82.5958" cy="512.726" r="5.72565" fill="#FAFAFA"/>
<circle cx="44.4219" cy="512.726" r="5.72565" fill="#FAFAFA"/>
<circle cx="6.25349" cy="512.726" r="5.72565" fill="#FAFAFA"/>
<circle cx="235.274" cy="551.726" r="5.72565" fill="#FAFAFA"/>
<circle cx="82.5958" cy="551.726" r="5.72565" fill="#FAFAFA"/>
<circle cx="44.4219" cy="551.726" r="5.72565" fill="#FAFAFA"/>
<circle cx="6.25349" cy="551.726" r="5.72565" fill="#FAFAFA"/>
<circle cx="235.274" cy="590.726" r="5.72565" fill="#FAFAFA"/>
<circle cx="197.11" cy="590.726" r="5.72565" fill="#FAFAFA"/>
<circle cx="158.933" cy="590.726" r="5.72565" fill="#FAFAFA"/>
<circle cx="120.76" cy="590.726" r="5.72565" fill="#FAFAFA"/>
<circle cx="82.5958" cy="590.726" r="5.72565" fill="#FAFAFA"/>
<circle cx="44.4219" cy="590.726" r="5.72565" fill="#FAFAFA"/>
<circle cx="6.25349" cy="590.726" r="5.72565" fill="#FAFAFA"/>
<circle cx="235.274" cy="629.726" r="5.72565" fill="#FAFAFA"/>
<circle cx="158.933" cy="629.726" r="5.72565" fill="#FAFAFA"/>
<circle cx="120.76" cy="629.726" r="5.72565" fill="#FAFAFA"/>
<circle cx="44.4219" cy="629.726" r="5.72565" fill="#FAFAFA"/>
<circle cx="6.25349" cy="629.726" r="5.72565" fill="#FAFAFA"/>
<circle cx="235.274" cy="668.726" r="5.72565" fill="#FAFAFA"/>
<circle cx="120.76" cy="668.726" r="5.72565" fill="#FAFAFA"/>
<circle cx="82.5958" cy="668.726" r="5.72565" fill="#FAFAFA"/>
<circle cx="235.274" cy="707.726" r="5.72565" fill="#FAFAFA"/>
<circle cx="158.933" cy="707.726" r="5.72565" fill="#FAFAFA"/>
<circle cx="120.76" cy="707.726" r="5.72565" fill="#FAFAFA"/>
<circle cx="82.5958" cy="707.726" r="5.72565" fill="#FAFAFA"/>
<circle cx="44.4219" cy="707.726" r="5.72565" fill="#FAFAFA"/>
<circle cx="6.25349" cy="707.726" r="5.72565" fill="#FAFAFA"/>
<circle cx="235.274" cy="746.726" r="5.72565" fill="#FAFAFA"/>
<circle cx="197.11" cy="746.726" r="5.72565" fill="#FAFAFA"/>
<circle cx="82.5958" cy="746.726" r="5.72565" fill="#FAFAFA"/>
<circle cx="44.4219" cy="746.726" r="5.72565" fill="#FAFAFA"/>
<circle cx="6.25349" cy="746.726" r="5.72565" fill="#FAFAFA"/>
<circle cx="235.274" cy="785.726" r="5.72565" fill="#FAFAFA"/>
<circle cx="197.11" cy="785.726" r="5.72565" fill="#FAFAFA"/>
<circle cx="44.4219" cy="785.726" r="5.72565" fill="#FAFAFA"/>
<circle cx="6.25349" cy="785.726" r="5.72565" fill="#FAFAFA"/>
<circle cx="235.274" cy="824.726" r="5.72565" fill="#FAFAFA"/>
<circle cx="197.11" cy="824.726" r="5.72565" fill="#FAFAFA"/>
<circle cx="82.5958" cy="824.726" r="5.72565" fill="#FAFAFA"/>
<circle cx="44.4219" cy="824.726" r="5.72565" fill="#FAFAFA"/>
<circle cx="6.25349" cy="824.726" r="5.72565" fill="#FAFAFA"/>
<circle cx="235.274" cy="863.726" r="5.72565" fill="#FAFAFA"/>
<circle cx="120.76" cy="863.726" r="5.72565" fill="#FAFAFA"/>
<circle cx="44.4219" cy="863.726" r="5.72565" fill="#FAFAFA"/>
<circle cx="6.25349" cy="863.726" r="5.72565" fill="#FAFAFA"/>
<circle cx="235.274" cy="902.726" r="5.72565" fill="#FAFAFA"/>
<circle cx="120.76" cy="902.726" r="5.72565" fill="#FAFAFA"/>
<circle cx="82.5958" cy="902.726" r="5.72565" fill="#FAFAFA"/>
<circle cx="44.4219" cy="902.726" r="5.72565" fill="#FAFAFA"/>
<circle cx="6.25349" cy="902.726" r="5.72565" fill="#FAFAFA"/>
</svg>
