<svg width="29" height="21" viewBox="0 0 29 21" fill="none" xmlns="http://www.w3.org/2000/svg">
<path d="M0 1.5C0 0.671573 0.671573 0 1.5 0H27.5C28.3284 0 29 0.671573 29 1.5C29 2.32843 28.3284 3 27.5 3H1.5C0.671573 3 0 2.32843 0 1.5Z" fill="#5E86ED"/>
<path d="M9 10.5C9 9.67157 9.67157 9 10.5 9H27.5C28.3284 9 29 9.67157 29 10.5C29 11.3284 28.3284 12 27.5 12H10.5C9.67157 12 9 11.3284 9 10.5Z" fill="#5E86ED"/>
<path d="M0 19.5C0 18.6716 0.671573 18 1.5 18H27.5C28.3284 18 29 18.6716 29 19.5C29 20.3284 28.3284 21 27.5 21H1.5C0.671573 21 0 20.3284 0 19.5Z" fill="#5E86ED"/>
</svg>
